<?xml version="1.0" standalone="no"?>
<!DOCTYPE svg PUBLIC "-//W3C//DTD SVG 20010904//EN"
 "http://www.w3.org/TR/2001/REC-SVG-20010904/DTD/svg10.dtd">
<svg version="1.0" xmlns="http://www.w3.org/2000/svg"
    width="512.000000pt" height="512.000000pt" viewBox="0 0 512.000000 512.000000"
    preserveAspectRatio="xMidYMid meet">

    <g transform="translate(0.000000,512.000000) scale(0.100000,-0.100000)"
    fill="#000000" stroke="none">
        <path d="M549 5105 c-494 -98 -716 -712 -401 -1104 29 -35 363 -372 742 -749
        l691 -685 -723 -726 c-783 -786 -771 -773 -824 -936 -34 -105 -42 -249 -20
        -355 50 -238 232 -438 471 -517 112 -37 284 -39 395 -4 181 56 143 23 946 823
        l730 729 735 -729 735 -729 94 -47 c205 -101 412 -101 617 -1 313 153 464 542
        336 865 -14 36 -42 89 -61 119 -21 33 -318 341 -753 780 l-720 725 729 730
        c703 705 730 734 769 811 54 105 72 171 80 280 6 101 -13 222 -49 310 -167
        399 -674 548 -1035 304 -26 -18 -370 -353 -764 -746 l-716 -714 -709 714
        c-464 466 -730 727 -768 752 -154 100 -345 136 -527 100z"/>
    </g>
</svg>
